<svg xmlns="http://www.w3.org/2000/svg" version="1.1" xmlns:xlink="http://www.w3.org/1999/xlink" xmlns:svgjs="http://svgjs.dev/svgjs" width="1000" height="196" viewBox="0 0 1000 196"><g transform="matrix(1,0,0,1,-0.6060606060606233,-0.624867119265204)"><svg viewBox="0 0 396 78" data-background-color="#ffffff" preserveAspectRatio="xMidYMid meet" height="196" width="1000" xmlns="http://www.w3.org/2000/svg" xmlns:xlink="http://www.w3.org/1999/xlink"><g id="tight-bounds" transform="matrix(1,0,0,1,0.2400000000000091,0.2486716086871752)"><svg viewBox="0 0 395.52 77.50265678262568" height="77.50265678262568" width="395.52"><g><svg viewBox="0 0 395.52 77.50265678262568" height="77.50265678262568" width="395.52"><g><svg viewBox="0 0 395.52 77.50265678262568" height="77.50265678262568" width="395.52"><g id="textblocktransform"><svg viewBox="0 0 395.52 77.50265678262568" height="77.50265678262568" width="395.52" id="textblock"><g><svg viewBox="0 0 395.52 41.80122971368254" height="41.80122971368254" width="395.52"><g transform="matrix(1,0,0,1,0,0)"><svg width="395.52" viewBox="3.15 -39.55 378.92 40.05" height="41.80122971368254" data-palette-color="#29a7f1"><path d="M22.5 0.5L22.5 0.5Q18.45 0.5 14.93-1.03 11.4-2.55 8.78-5.3 6.15-8.05 4.65-11.7 3.15-15.35 3.15-19.55L3.15-19.55Q3.15-23.7 4.63-27.33 6.1-30.95 8.75-33.7 11.4-36.45 14.9-38 18.4-39.55 22.5-39.55L22.5-39.55Q26.3-39.55 29.13-38.53 31.95-37.5 34.75-35.2L34.75-35.2Q35.15-34.9 35.33-34.52 35.5-34.15 35.48-33.8 35.45-33.45 35.35-33.05L35.35-33.05Q35.3-32.3 34.73-31.8 34.15-31.3 33.33-31.28 32.5-31.25 31.75-31.85L31.75-31.85Q29.85-33.5 27.78-34.35 25.7-35.2 22.5-35.2L22.5-35.2Q19.45-35.2 16.78-33.95 14.1-32.7 12.08-30.55 10.05-28.4 8.9-25.58 7.75-22.75 7.75-19.55L7.75-19.55Q7.75-16.3 8.9-13.45 10.05-10.6 12.08-8.45 14.1-6.3 16.78-5.1 19.45-3.9 22.5-3.9L22.5-3.9Q25.15-3.9 27.48-4.78 29.8-5.65 31.95-7.25L31.95-7.25Q32.75-7.85 33.55-7.78 34.35-7.7 34.93-7.13 35.5-6.55 35.5-5.55L35.5-5.55Q35.5-5.05 35.35-4.63 35.2-4.2 34.75-3.85L34.75-3.85Q32.15-1.6 29.03-0.55 25.9 0.5 22.5 0.5ZM35.5-17.65L35.5-5.55 30.9-6.45 30.9-15.8 23.7-15.8Q22.65-15.8 21.98-16.4 21.3-17 21.3-17.9L21.3-17.9Q21.3-18.8 21.98-19.4 22.65-20 23.7-20L23.7-20 33.15-20Q34.2-20 34.85-19.35 35.5-18.7 35.5-17.65L35.5-17.65ZM47.85-17L45.4-17Q45.45-20.05 46.92-22.45 48.4-24.85 50.87-26.25 53.35-27.65 56.3-27.65L56.3-27.65Q59.05-27.65 60.45-26.78 61.85-25.9 61.55-24.6L61.55-24.6Q61.35-23.9 60.92-23.55 60.5-23.2 59.9-23.15 59.3-23.1 58.6-23.25L58.6-23.25Q55.5-23.75 53.07-23.1 50.65-22.45 49.25-20.9 47.85-19.35 47.85-17L47.85-17ZM45.55 0L45.55 0Q44.45 0 43.85-0.58 43.25-1.15 43.25-2.3L43.25-2.3 43.25-25.05Q43.25-26.15 43.85-26.75 44.45-27.35 45.55-27.35L45.55-27.35Q46.7-27.35 47.27-26.78 47.85-26.2 47.85-25.05L47.85-25.05 47.85-2.3Q47.85-1.2 47.27-0.6 46.7 0 45.55 0ZM78.75 0.25L78.75 0.25Q75.25 0.25 72.5-1.23 69.75-2.7 68.15-5.55 66.55-8.4 66.55-12.5L66.55-12.5 66.55-25.05Q66.55-26.05 67.22-26.73 67.9-27.4 68.9-27.4L68.9-27.4Q69.9-27.4 70.57-26.73 71.25-26.05 71.25-25.05L71.25-25.05 71.25-12.5Q71.25-9.6 72.34-7.73 73.45-5.85 75.32-4.93 77.2-4 79.55-4L79.55-4Q81.8-4 83.57-4.9 85.34-5.8 86.4-7.3 87.45-8.8 87.45-10.7L87.45-10.7 90.45-10.7Q90.4-7.6 88.84-5.1 87.3-2.6 84.67-1.18 82.05 0.25 78.75 0.25ZM89.75 0L89.75 0Q88.75 0 88.09-0.65 87.45-1.3 87.45-2.35L87.45-2.35 87.45-25.05Q87.45-26.1 88.09-26.75 88.75-27.4 89.75-27.4L89.75-27.4Q90.8-27.4 91.45-26.75 92.09-26.1 92.09-25.05L92.09-25.05 92.09-2.35Q92.09-1.3 91.45-0.65 90.8 0 89.75 0ZM114.89 0.2L114.89 0.2Q110.99 0.2 107.87-1.6 104.74-3.4 102.94-6.55 101.14-9.7 101.09-13.65L101.09-13.65 101.09-36.7Q101.09-37.75 101.74-38.4 102.39-39.05 103.44-39.05L103.44-39.05Q104.49-39.05 105.14-38.4 105.79-37.75 105.79-36.7L105.79-36.7 105.79-22.8Q107.49-25 110.04-26.28 112.59-27.55 115.69-27.55L115.69-27.55Q119.39-27.55 122.34-25.73 125.29-23.9 127.02-20.78 128.74-17.65 128.74-13.7L128.74-13.7Q128.74-9.75 126.92-6.6 125.09-3.45 121.97-1.63 118.84 0.2 114.89 0.2ZM114.89-3.95L114.89-3.95Q117.54-3.95 119.64-5.23 121.74-6.5 122.97-8.72 124.19-10.95 124.19-13.7L124.19-13.7Q124.19-16.5 122.97-18.68 121.74-20.85 119.64-22.13 117.54-23.4 114.89-23.4L114.89-23.4Q112.24-23.4 110.14-22.13 108.04-20.85 106.84-18.68 105.64-16.5 105.64-13.7L105.64-13.7Q105.64-10.95 106.84-8.72 108.04-6.5 110.14-5.23 112.24-3.95 114.89-3.95ZM148.99 0.2L148.99 0.2Q144.89 0.2 141.69-1.58 138.49-3.35 136.69-6.48 134.89-9.6 134.89-13.65L134.89-13.65Q134.89-17.75 136.59-20.88 138.29-24 141.32-25.78 144.34-27.55 148.24-27.55L148.24-27.55Q152.09-27.55 154.92-25.83 157.74-24.1 159.24-21.08 160.74-18.05 160.74-14.1L160.74-14.1Q160.74-13.2 160.14-12.63 159.54-12.05 158.59-12.05L158.59-12.05 138.09-12.05 138.09-15.8 158.64-15.8 156.54-14.35Q156.54-17 155.54-19.07 154.54-21.15 152.69-22.35 150.84-23.55 148.24-23.55L148.24-23.55Q145.39-23.55 143.32-22.28 141.24-21 140.17-18.75 139.09-16.5 139.09-13.65L139.09-13.65Q139.09-10.8 140.37-8.58 141.64-6.35 143.87-5.08 146.09-3.8 148.99-3.8L148.99-3.8Q150.64-3.8 152.32-4.4 153.99-5 155.04-5.8L155.04-5.8Q155.74-6.3 156.54-6.33 157.34-6.35 157.94-5.85L157.94-5.85Q158.74-5.15 158.79-4.33 158.84-3.5 158.04-2.9L158.04-2.9Q156.39-1.55 153.84-0.68 151.29 0.2 148.99 0.2ZM171.84-17L169.39-17Q169.44-20.05 170.91-22.45 172.39-24.85 174.86-26.25 177.34-27.65 180.29-27.65L180.29-27.65Q183.04-27.65 184.44-26.78 185.84-25.9 185.54-24.6L185.54-24.6Q185.34-23.9 184.91-23.55 184.49-23.2 183.89-23.15 183.29-23.1 182.59-23.25L182.59-23.25Q179.49-23.75 177.06-23.1 174.64-22.45 173.24-20.9 171.84-19.35 171.84-17L171.84-17ZM169.54 0L169.54 0Q168.44 0 167.84-0.58 167.24-1.15 167.24-2.3L167.24-2.3 167.24-25.05Q167.24-26.15 167.84-26.75 168.44-27.35 169.54-27.35L169.54-27.35Q170.69-27.35 171.26-26.78 171.84-26.2 171.84-25.05L171.84-25.05 171.84-2.3Q171.84-1.2 171.26-0.6 170.69 0 169.54 0ZM205.48 0L205.48 0Q204.48 0 203.78-0.7 203.08-1.4 203.08-2.4L203.08-2.4 203.08-36.65Q203.08-37.7 203.78-38.38 204.48-39.05 205.48-39.05L205.48-39.05 228.38-39.05Q229.43-39.05 230.08-38.43 230.73-37.8 230.73-36.8L230.73-36.8Q230.73-35.85 230.08-35.23 229.43-34.6 228.38-34.6L228.38-34.6 207.88-34.6 207.88-21.9 222.63-21.9Q223.68-21.9 224.33-21.28 224.98-20.65 224.98-19.65L224.98-19.65Q224.98-18.7 224.33-18.07 223.68-17.45 222.63-17.45L222.63-17.45 207.88-17.45 207.88-2.4Q207.88-1.4 207.18-0.7 206.48 0 205.48 0ZM243.58 0L243.28 0Q241.13 0 239.48-1.18 237.83-2.35 236.91-4.38 235.98-6.4 235.98-9.05L235.98-9.05 235.98-36.75Q235.98-37.8 236.61-38.43 237.23-39.05 238.28-39.05L238.28-39.05Q239.33-39.05 239.96-38.43 240.58-37.8 240.58-36.75L240.58-36.75 240.58-9.05Q240.58-7.1 241.33-5.85 242.08-4.6 243.28-4.6L243.28-4.6 244.53-4.6Q245.48-4.6 246.03-3.98 246.58-3.35 246.58-2.3L246.58-2.3Q246.58-1.25 245.73-0.63 244.88 0 243.58 0L243.58 0ZM262.58 0.2L262.58 0.2Q258.58 0.2 255.45-1.58 252.33-3.35 250.55-6.48 248.78-9.6 248.78-13.65L248.78-13.65Q248.78-17.75 250.55-20.88 252.33-24 255.45-25.78 258.58-27.55 262.58-27.55L262.58-27.55Q266.58-27.55 269.68-25.78 272.78-24 274.58-20.88 276.38-17.75 276.38-13.65L276.38-13.65Q276.38-9.6 274.6-6.48 272.83-3.35 269.73-1.58 266.63 0.2 262.58 0.2ZM262.58-3.95L262.58-3.95Q265.28-3.95 267.38-5.2 269.48-6.45 270.68-8.63 271.88-10.8 271.88-13.65L271.88-13.65Q271.88-16.5 270.68-18.7 269.48-20.9 267.38-22.15 265.28-23.4 262.58-23.4L262.58-23.4Q259.88-23.4 257.78-22.15 255.68-20.9 254.48-18.7 253.28-16.5 253.28-13.65L253.28-13.65Q253.28-10.8 254.48-8.63 255.68-6.45 257.78-5.2 259.88-3.95 262.58-3.95ZM288.58-17L286.13-17Q286.18-20.05 287.65-22.45 289.13-24.85 291.6-26.25 294.08-27.65 297.03-27.65L297.03-27.65Q299.78-27.65 301.18-26.78 302.58-25.9 302.28-24.6L302.28-24.6Q302.08-23.9 301.65-23.55 301.23-23.2 300.63-23.15 300.03-23.1 299.33-23.25L299.33-23.25Q296.23-23.75 293.8-23.1 291.38-22.45 289.98-20.9 288.58-19.35 288.58-17L288.58-17ZM286.28 0L286.28 0Q285.18 0 284.58-0.58 283.98-1.15 283.98-2.3L283.98-2.3 283.98-25.05Q283.98-26.15 284.58-26.75 285.18-27.35 286.28-27.35L286.28-27.35Q287.43-27.35 288-26.78 288.58-26.2 288.58-25.05L288.58-25.05 288.58-2.3Q288.58-1.2 288-0.6 287.43 0 286.28 0ZM310.77 0L310.77 0Q309.72 0 309.07-0.65 308.42-1.3 308.42-2.35L308.42-2.35 308.42-25Q308.42-26.05 309.07-26.7 309.72-27.35 310.77-27.35L310.77-27.35Q311.82-27.35 312.47-26.7 313.12-26.05 313.12-25L313.12-25 313.12-2.35Q313.12-1.3 312.47-0.65 311.82 0 310.77 0ZM310.77-32.05L310.77-32.05Q309.52-32.05 308.6-32.98 307.67-33.9 307.67-35.15L307.67-35.15Q307.67-36.5 308.6-37.38 309.52-38.25 310.77-38.25L310.77-38.25Q312.02-38.25 312.95-37.38 313.87-36.5 313.87-35.15L313.87-35.15Q313.87-33.9 312.97-32.98 312.07-32.05 310.77-32.05ZM334.32 0.2L334.32 0.2Q330.62 0.2 327.67-1.6 324.72-3.4 323.02-6.55 321.32-9.7 321.32-13.65L321.32-13.65Q321.32-17.65 323.15-20.78 324.97-23.9 328.1-25.73 331.22-27.55 335.12-27.55L335.12-27.55Q339.07-27.55 342.17-25.73 345.27-23.9 347.1-20.75 348.92-17.6 348.92-13.65L348.92-13.65 347.12-13.25Q347.12-9.45 345.45-6.4 343.77-3.35 340.9-1.58 338.02 0.2 334.32 0.2ZM335.12-3.95L335.12-3.95Q337.82-3.95 339.9-5.23 341.97-6.5 343.2-8.7 344.42-10.9 344.42-13.65L344.42-13.65Q344.42-16.45 343.2-18.65 341.97-20.85 339.9-22.13 337.82-23.4 335.12-23.4L335.12-23.4Q332.52-23.4 330.4-22.13 328.27-20.85 327.05-18.65 325.82-16.45 325.82-13.65L325.82-13.65Q325.82-10.9 327.05-8.7 328.27-6.5 330.4-5.23 332.52-3.95 335.12-3.95ZM346.57 0.05L346.57 0.05Q345.57 0.05 344.9-0.63 344.22-1.3 344.22-2.3L344.22-2.3 344.22-10.25 345.17-15.1 348.92-13.65 348.92-2.3Q348.92-1.3 348.27-0.63 347.62 0.05 346.57 0.05ZM379.72 0.05L379.72 0.05Q378.72 0.05 378.04-0.63 377.37-1.3 377.37-2.3L377.37-2.3 377.37-14.85Q377.37-17.75 376.29-19.63 375.22-21.5 373.34-22.43 371.47-23.35 369.12-23.35L369.12-23.35Q366.87-23.35 365.09-22.45 363.32-21.55 362.27-20.05 361.22-18.55 361.22-16.65L361.22-16.65 358.17-16.65Q358.22-19.8 359.77-22.28 361.32-24.75 363.97-26.18 366.62-27.6 369.92-27.6L369.92-27.6Q373.37-27.6 376.12-26.13 378.87-24.65 380.47-21.8 382.07-18.95 382.07-14.85L382.07-14.85 382.07-2.3Q382.07-1.3 381.39-0.63 380.72 0.05 379.72 0.05ZM358.87 0.05L358.87 0.05Q357.82 0.05 357.17-0.63 356.52-1.3 356.52-2.3L356.52-2.3 356.52-25Q356.52-26.05 357.17-26.7 357.82-27.35 358.87-27.35L358.87-27.35Q359.92-27.35 360.57-26.7 361.22-26.05 361.22-25L361.22-25 361.22-2.3Q361.22-1.3 360.57-0.63 359.92 0.05 358.87 0.05Z" opacity="1" transform="matrix(1,0,0,1,0,0)" fill="#29a7f1" class="wordmark-text-0" data-fill-palette-color="primary" id="text-0"></path></svg></g></svg></g><g transform="matrix(1,0,0,1,0,51.66949681956986)"><svg viewBox="0 0 211.48092522543197 25.83315996305581" height="25.83315996305581" width="211.48092522543197"><g transform="matrix(1,0,0,1,0,0)"><svg width="211.48092522543197" viewBox="4.5 -39.05 326.1985714285714 39.849999999999994" height="25.83315996305581" data-palette-color="#7e7e7e"><path d="M18.3 0.2L18.3 0.2Q14.4 0.2 11.28-1.6 8.15-3.4 6.35-6.55 4.55-9.7 4.5-13.65L4.5-13.65 4.5-36.7Q4.5-37.75 5.15-38.4 5.8-39.05 6.85-39.05L6.85-39.05Q7.9-39.05 8.55-38.4 9.2-37.75 9.2-36.7L9.2-36.7 9.2-22.8Q10.9-25 13.45-26.28 16-27.55 19.1-27.55L19.1-27.55Q22.8-27.55 25.75-25.73 28.7-23.9 30.43-20.78 32.15-17.65 32.15-13.7L32.15-13.7Q32.15-9.75 30.33-6.6 28.5-3.45 25.38-1.63 22.25 0.2 18.3 0.2ZM18.3-3.95L18.3-3.95Q20.95-3.95 23.05-5.23 25.15-6.5 26.38-8.72 27.6-10.95 27.6-13.7L27.6-13.7Q27.6-16.5 26.38-18.68 25.15-20.85 23.05-22.13 20.95-23.4 18.3-23.4L18.3-23.4Q15.65-23.4 13.55-22.13 11.45-20.85 10.25-18.68 9.05-16.5 9.05-13.7L9.05-13.7Q9.05-10.95 10.25-8.72 11.45-6.5 13.55-5.23 15.65-3.95 18.3-3.95ZM42.65 0L42.65 0Q41.6 0 40.95-0.65 40.3-1.3 40.3-2.35L40.3-2.35 40.3-25Q40.3-26.05 40.95-26.7 41.6-27.35 42.65-27.35L42.65-27.35Q43.7-27.35 44.35-26.7 45-26.05 45-25L45-25 45-2.35Q45-1.3 44.35-0.65 43.7 0 42.65 0ZM42.65-32.05L42.65-32.05Q41.4-32.05 40.47-32.98 39.55-33.9 39.55-35.15L39.55-35.15Q39.55-36.5 40.47-37.38 41.4-38.25 42.65-38.25L42.65-38.25Q43.9-38.25 44.82-37.38 45.75-36.5 45.75-35.15L45.75-35.15Q45.75-33.9 44.85-32.98 43.95-32.05 42.65-32.05ZM65.75 0L64.8 0Q62.25 0 60.22-1.28 58.2-2.55 57.02-4.73 55.85-6.9 55.85-9.7L55.85-9.7 55.85-33.75Q55.85-34.75 56.5-35.4 57.15-36.05 58.15-36.05L58.15-36.05Q59.2-36.05 59.85-35.4 60.5-34.75 60.5-33.75L60.5-33.75 60.5-9.7Q60.5-7.5 61.72-6.05 62.95-4.6 64.8-4.6L64.8-4.6 66.4-4.6Q67.25-4.6 67.82-3.95 68.4-3.3 68.4-2.3L68.4-2.3Q68.4-1.3 67.65-0.65 66.9 0 65.75 0L65.75 0ZM65.2-22.35L53.25-22.35Q52.3-22.35 51.7-22.93 51.1-23.5 51.1-24.3L51.1-24.3Q51.1-25.25 51.7-25.8 52.3-26.35 53.25-26.35L53.25-26.35 65.2-26.35Q66.15-26.35 66.75-25.8 67.34-25.25 67.34-24.3L67.34-24.3Q67.34-23.5 66.75-22.93 66.15-22.35 65.2-22.35L65.2-22.35ZM84.44 0.2L84.44 0.2Q81.14 0.2 78.19-0.85 75.24-1.9 73.54-3.65L73.54-3.65Q72.84-4.4 72.97-5.33 73.09-6.25 73.89-6.85L73.89-6.85Q74.79-7.55 75.69-7.45 76.59-7.35 77.19-6.65L77.19-6.65Q78.19-5.55 80.09-4.75 81.99-3.95 84.34-3.95L84.34-3.95Q87.49-3.95 89.07-5 90.64-6.05 90.69-7.65L90.69-7.65Q90.69-9.25 89.14-10.38 87.59-11.5 83.69-12.2L83.69-12.2Q78.64-13.15 76.34-15.15 74.04-17.15 74.04-20L74.04-20Q74.04-22.55 75.49-24.23 76.94-25.9 79.27-26.73 81.59-27.55 84.19-27.55L84.19-27.55Q87.49-27.55 90.02-26.48 92.54-25.4 94.04-23.5L94.04-23.5Q94.64-22.75 94.59-21.95 94.54-21.15 93.74-20.6L93.74-20.6Q93.04-20.1 92.04-20.28 91.04-20.45 90.34-21.1L90.34-21.1Q89.09-22.4 87.59-22.93 86.09-23.45 84.09-23.45L84.09-23.45Q81.69-23.45 80.14-22.58 78.59-21.7 78.59-20.15L78.59-20.15Q78.59-19.2 79.12-18.43 79.64-17.65 81.07-17.05 82.49-16.45 85.24-15.95L85.24-15.95Q88.99-15.25 91.17-14.08 93.34-12.9 94.27-11.38 95.19-9.85 95.19-7.9L95.19-7.9Q95.19-5.55 93.92-3.73 92.64-1.9 90.27-0.85 87.89 0.2 84.44 0.2ZM114.09 0.2L114.09 0.2Q110.09 0.2 106.99-1.63 103.89-3.45 102.12-6.58 100.34-9.7 100.34-13.65L100.34-13.65Q100.34-17.7 102.07-20.85 103.79-24 106.82-25.78 109.84-27.55 113.74-27.55L113.74-27.55Q116.74-27.55 119.22-26.4 121.69-25.25 123.64-22.95L123.64-22.95Q124.29-22.25 124.12-21.45 123.94-20.65 123.09-20.05L123.09-20.05Q122.44-19.6 121.67-19.75 120.89-19.9 120.24-20.55L120.24-20.55Q117.64-23.4 113.74-23.4L113.74-23.4Q111.09-23.4 109.09-22.18 107.09-20.95 105.97-18.75 104.84-16.55 104.84-13.65L104.84-13.65Q104.84-10.85 106.02-8.68 107.19-6.5 109.27-5.23 111.34-3.95 114.09-3.95L114.09-3.95Q115.89-3.95 117.32-4.4 118.74-4.85 119.89-5.85L119.89-5.85Q120.64-6.45 121.42-6.5 122.19-6.55 122.79-6.05L122.79-6.05Q123.59-5.4 123.67-4.58 123.74-3.75 123.09-3.15L123.09-3.15Q119.49 0.2 114.09 0.2ZM144.09 0.2L144.09 0.2Q140.09 0.2 136.96-1.58 133.84-3.35 132.06-6.48 130.29-9.6 130.29-13.65L130.29-13.65Q130.29-17.75 132.06-20.88 133.84-24 136.96-25.78 140.09-27.55 144.09-27.55L144.09-27.55Q148.09-27.55 151.19-25.78 154.29-24 156.09-20.88 157.89-17.75 157.89-13.65L157.89-13.65Q157.89-9.6 156.11-6.48 154.34-3.35 151.24-1.58 148.14 0.2 144.09 0.2ZM144.09-3.95L144.09-3.95Q146.79-3.95 148.89-5.2 150.99-6.45 152.19-8.63 153.39-10.8 153.39-13.65L153.39-13.65Q153.39-16.5 152.19-18.7 150.99-20.9 148.89-22.15 146.79-23.4 144.09-23.4L144.09-23.4Q141.39-23.4 139.29-22.15 137.19-20.9 135.99-18.7 134.79-16.5 134.79-13.65L134.79-13.65Q134.79-10.8 135.99-8.63 137.19-6.45 139.29-5.2 141.39-3.95 144.09-3.95ZM177.89 0.2L177.89 0.2Q173.99 0.2 170.86-1.63 167.74-3.45 165.91-6.6 164.09-9.75 164.09-13.7L164.09-13.7Q164.09-17.65 165.79-20.78 167.49-23.9 170.44-25.73 173.39-27.55 177.09-27.55L177.09-27.55Q180.19-27.55 182.76-26.28 185.34-25 186.99-22.8L186.99-22.8 186.99-36.7Q186.99-37.75 187.66-38.4 188.34-39.05 189.34-39.05L189.34-39.05Q190.39-39.05 191.04-38.4 191.69-37.75 191.69-36.7L191.69-36.7 191.69-13.65Q191.69-9.7 189.86-6.55 188.04-3.4 184.91-1.6 181.79 0.2 177.89 0.2ZM177.89-3.95L177.89-3.95Q180.59-3.95 182.66-5.23 184.74-6.5 185.96-8.72 187.19-10.95 187.19-13.7L187.19-13.7Q187.19-16.5 185.96-18.68 184.74-20.85 182.66-22.13 180.59-23.4 177.89-23.4L177.89-23.4Q175.29-23.4 173.16-22.13 171.04-20.85 169.81-18.68 168.59-16.5 168.59-13.7L168.59-13.7Q168.59-10.95 169.81-8.72 171.04-6.5 173.16-5.23 175.29-3.95 177.89-3.95ZM213.38 0.2L213.38 0.2Q209.28 0.2 206.08-1.58 202.88-3.35 201.08-6.48 199.28-9.6 199.28-13.65L199.28-13.65Q199.28-17.75 200.98-20.88 202.68-24 205.71-25.78 208.73-27.55 212.63-27.55L212.63-27.55Q216.48-27.55 219.31-25.83 222.13-24.1 223.63-21.08 225.13-18.05 225.13-14.1L225.13-14.1Q225.13-13.2 224.53-12.63 223.93-12.05 222.98-12.05L222.98-12.05 202.48-12.05 202.48-15.8 223.03-15.8 220.93-14.35Q220.93-17 219.93-19.07 218.93-21.15 217.08-22.35 215.23-23.55 212.63-23.55L212.63-23.55Q209.78-23.55 207.71-22.28 205.63-21 204.56-18.75 203.48-16.5 203.48-13.65L203.48-13.65Q203.48-10.8 204.76-8.58 206.03-6.35 208.26-5.08 210.48-3.8 213.38-3.8L213.38-3.8Q215.03-3.8 216.71-4.4 218.38-5 219.43-5.8L219.43-5.8Q220.13-6.3 220.93-6.33 221.73-6.35 222.33-5.85L222.33-5.85Q223.13-5.15 223.18-4.33 223.23-3.5 222.43-2.9L222.43-2.9Q220.78-1.55 218.23-0.68 215.68 0.2 213.38 0.2ZM232.88 0.8L232.88 0.8Q231.58 0.8 230.6-0.18 229.63-1.15 229.63-2.45L229.63-2.45Q229.63-3.85 230.6-4.83 231.58-5.8 232.88-5.8L232.88-5.8Q234.28-5.8 235.23-4.83 236.18-3.85 236.18-2.45L236.18-2.45Q236.18-1.15 235.23-0.18 234.28 0.8 232.88 0.8ZM255.58 0.2L255.58 0.2Q251.68 0.2 248.55-1.63 245.43-3.45 243.6-6.6 241.78-9.75 241.78-13.7L241.78-13.7Q241.78-17.65 243.48-20.78 245.18-23.9 248.13-25.73 251.08-27.55 254.78-27.55L254.78-27.55Q257.88-27.55 260.45-26.28 263.03-25 264.68-22.8L264.68-22.8 264.68-36.7Q264.68-37.75 265.35-38.4 266.03-39.05 267.03-39.05L267.03-39.05Q268.08-39.05 268.73-38.4 269.38-37.75 269.38-36.7L269.38-36.7 269.38-13.65Q269.38-9.7 267.55-6.55 265.73-3.4 262.6-1.6 259.48 0.2 255.58 0.2ZM255.58-3.95L255.58-3.95Q258.28-3.95 260.35-5.23 262.43-6.5 263.65-8.72 264.88-10.95 264.88-13.7L264.88-13.7Q264.88-16.5 263.65-18.68 262.43-20.85 260.35-22.13 258.28-23.4 255.58-23.4L255.58-23.4Q252.98-23.4 250.85-22.13 248.73-20.85 247.5-18.68 246.28-16.5 246.28-13.7L246.28-13.7Q246.28-10.95 247.5-8.72 248.73-6.5 250.85-5.23 252.98-3.95 255.58-3.95ZM291.07 0.2L291.07 0.2Q286.98 0.2 283.77-1.58 280.57-3.35 278.77-6.48 276.98-9.6 276.98-13.65L276.98-13.65Q276.98-17.75 278.68-20.88 280.38-24 283.4-25.78 286.43-27.55 290.32-27.55L290.32-27.55Q294.18-27.55 297-25.83 299.82-24.1 301.32-21.08 302.82-18.05 302.82-14.1L302.82-14.1Q302.82-13.2 302.23-12.63 301.63-12.05 300.68-12.05L300.68-12.05 280.18-12.05 280.18-15.8 300.73-15.8 298.63-14.35Q298.63-17 297.63-19.07 296.63-21.15 294.77-22.35 292.93-23.55 290.32-23.55L290.32-23.55Q287.48-23.55 285.4-22.28 283.32-21 282.25-18.75 281.18-16.5 281.18-13.65L281.18-13.65Q281.18-10.8 282.45-8.58 283.73-6.35 285.95-5.08 288.18-3.8 291.07-3.8L291.07-3.8Q292.73-3.8 294.4-4.4 296.07-5 297.13-5.8L297.13-5.8Q297.82-6.3 298.63-6.33 299.43-6.35 300.02-5.85L300.02-5.85Q300.82-5.15 300.88-4.33 300.93-3.5 300.13-2.9L300.13-2.9Q298.48-1.55 295.93-0.68 293.38 0.2 291.07 0.2ZM317.62-0.05L317.62-0.05Q316.17-0.05 315.42-1.55L315.42-1.55 304.62-24.3Q304.27-25.1 304.57-25.88 304.87-26.65 305.77-27.05L305.77-27.05Q306.57-27.45 307.37-27.18 308.17-26.9 308.57-26.1L308.57-26.1 318.72-4.2 316.42-4.2 326.47-26.1Q326.87-26.9 327.72-27.18 328.57-27.45 329.47-27.05L329.47-27.05Q330.27-26.7 330.57-25.9 330.87-25.1 330.47-24.35L330.47-24.35 319.77-1.55Q319.07-0.05 317.62-0.05Z" opacity="1" transform="matrix(1,0,0,1,0,0)" fill="#7e7e7e" class="slogan-text-1" data-fill-palette-color="secondary" id="text-1"></path></svg></g></svg></g></svg></g></svg></g><g></g></svg></g><defs></defs></svg><rect width="395.52" height="77.50265678262568" fill="none" stroke="none" visibility="hidden"></rect></g></svg></g></svg>